<?xml version="1.0" encoding="utf-8"?>
<!-- Generator: Adobe Illustrator 15.1.0, SVG Export Plug-In . SVG Version: 6.00 Build 0)  -->
<!DOCTYPE svg PUBLIC "-//W3C//DTD SVG 1.1//EN" "http://www.w3.org/Graphics/SVG/1.1/DTD/svg11.dtd">
<svg version="1.1" id="Layer_1" xmlns="http://www.w3.org/2000/svg" xmlns:xlink="http://www.w3.org/1999/xlink" x="0px" y="0px"
	 width="352.449px" height="202.574px" viewBox="0 0 352.449 202.574" enable-background="new 0 0 352.449 202.574"
	 xml:space="preserve">
<g>
	<g>
		<g>
			<path d="M206.306,106.67c0,0.623-0.279,1.182-0.84,1.68c-4.791,4.355-9.363,8.338-13.717,11.945
				c-1.866,1.555-3.78,3.096-5.739,4.619c-1.961,1.525-3.873,2.932-5.74,4.223c-1.865,1.291-3.607,2.396-5.225,3.318
				c-1.619,0.922-3.02,1.566-4.199,1.936c-0.373,0.123-0.748,0.215-1.121,0.277c-0.311,0.062-0.686,0.107-1.119,0.139
				c-0.436,0.029-0.902,0.045-1.4,0.045c-0.809,0-1.633-0.094-2.473-0.275c-0.84-0.186-1.619-0.555-2.332-1.105
				c-0.717-0.553-1.293-1.322-1.727-2.307c-0.436-0.982-0.654-2.273-0.654-3.873c0-1.055,0.311-2.346,0.934-3.871
				c0.621-1.523,1.414-3.125,2.379-4.805s2.037-3.344,3.221-4.992c1.18-1.648,2.316-3.141,3.406-4.48
				c1.088-1.336,2.053-2.457,2.893-3.359c0.84-0.901,1.414-1.414,1.727-1.54c0.311-0.124,0.652-0.28,1.025-0.467
				c0.311-0.124,0.654-0.248,1.027-0.373c0.373-0.124,0.746-0.187,1.119-0.187c0.436,0,1.104,0.062,2.008,0.187
				c0.9,0.125,1.633,0.312,2.191,0.56c0.062,0.063,0.154,0.126,0.281,0.188c0.061,0.125,0.123,0.232,0.186,0.326
				s0.094,0.203,0.094,0.326c0,0.25-0.219,0.593-0.652,1.027c-2.055,2.115-3.953,4.199-5.693,6.252
				c-1.492,1.805-2.955,3.75-4.387,5.832c-1.432,2.086-2.457,4.061-3.078,5.926c-0.125,0.25-0.25,0.5-0.373,0.748
				c-0.25,0.621-0.375,1.15-0.375,1.586c0,0.686,0.375,1.025,1.121,1.025c0.434,0,1.182-0.186,2.24-0.559
				c3.42-1.867,7.029-3.92,10.824-6.16c3.234-1.928,6.873-4.184,10.917-6.766c4.045-2.58,8.182-5.459,12.412-8.631
				c0.125,0.125,0.248,0.279,0.373,0.467c0.125,0.125,0.234,0.279,0.326,0.467C206.259,106.203,206.306,106.422,206.306,106.67z
				 M193.615,89.873c0,0.312-0.031,0.606-0.094,0.887s-0.248,0.576-0.559,0.887c-0.811,1.059-1.713,1.991-2.706,2.8
				c-0.873,0.685-1.836,1.306-2.895,1.866c-1.059,0.56-2.209,0.84-3.451,0.84c-0.312-0.062-0.592-0.187-0.84-0.374
				c-0.561-0.311-0.84-0.87-0.84-1.68c0-0.994,0.34-1.99,1.025-2.985c0.684-0.995,1.508-1.867,2.473-2.613s1.943-1.354,2.939-1.819
				c0.996-0.467,1.804-0.7,2.427-0.7c0.125,0.062,0.279,0.093,0.467,0.093c0.123,0.063,0.248,0.094,0.373,0.094
				s0.248,0.062,0.373,0.187c0.498,0.623,0.84,1.105,1.027,1.446C193.521,89.142,193.615,89.5,193.615,89.873z"/>
			<path d="M231.595,106.576c0,0.561-0.312,1.027-0.934,1.4c-3.609,1.93-7.062,3.889-10.359,5.879
				c-1.432,0.871-2.861,1.773-4.291,2.707c-1.434,0.932-2.832,1.881-4.201,2.846s-2.629,1.93-3.779,2.893
				c-1.15,0.965-2.1,1.883-2.846,2.752c-0.062,0.064-0.062,0.094,0,0.094h0.373c0.561,0,1.197-0.107,1.914-0.326
				c0.715-0.217,1.508-0.467,2.379-0.746c0.871-0.281,1.867-0.527,2.986-0.746s2.395-0.328,3.826-0.328
				c0.809,0,1.539,0.08,2.193,0.234c0.652,0.156,1.166,0.42,1.539,0.793c0.871,1.059,1.648,2.053,2.334,2.986
				c0.621,0.809,1.18,1.633,1.68,2.473c0.496,0.84,0.746,1.51,0.746,2.006c0,0.5-0.25,0.746-0.746,0.746
				c-0.373,0-0.67-0.092-0.887-0.279c-0.219-0.186-0.467-0.373-0.748-0.561c-0.279-0.186-0.668-0.373-1.166-0.559
				c-0.498-0.188-1.213-0.281-2.146-0.281c-0.809,0-1.586,0.127-2.332,0.375c-0.934,0.311-2.133,0.639-3.594,0.979
				c-1.461,0.344-3.002,0.686-4.619,1.027c-1.617,0.34-3.234,0.621-4.852,0.84c-1.619,0.217-3.049,0.326-4.293,0.326
				c-0.25,0-0.639-0.172-1.166-0.514c-0.529-0.342-1.059-0.777-1.586-1.307c-0.529-0.527-0.996-1.133-1.4-1.818
				c-0.406-0.684-0.607-1.369-0.607-2.053c0-1.68,0.934-3.344,2.801-4.994c1.865-1.646,4.137-3.279,6.811-4.898
				c2.676-1.617,5.475-3.188,8.4-4.713c2.922-1.523,5.441-3,7.559-4.432c0.123-0.062,0.201-0.125,0.232-0.188
				c0.031-0.061,0.078-0.123,0.141-0.186l0.094-0.094l-0.375,0.094c-2.611,0.684-4.604,1.135-5.971,1.352
				c-1.369,0.219-2.428,0.328-3.174,0.328c-0.809,0-1.492-0.281-2.053-0.84c-0.498-0.686-0.934-1.369-1.307-2.055
				c-0.312-0.559-0.605-1.133-0.887-1.727c-0.279-0.59-0.42-1.072-0.42-1.446c0-0.808,0.498-1.337,1.494-1.586
				c0.559-0.124,1.367-0.28,2.426-0.467c1.057-0.187,2.254-0.373,3.592-0.56s2.721-0.357,4.154-0.514
				c1.43-0.154,2.799-0.233,4.105-0.233s2.441,0.079,3.406,0.233c0.963,0.156,1.664,0.482,2.1,0.979
				c0.746,0.747,1.354,1.37,1.818,1.867c0.467,0.498,0.824,0.885,1.074,1.167c0.248,0.279,0.404,0.498,0.467,0.652
				C231.562,106.312,231.595,106.453,231.595,106.576z"/>
			<path d="M263.417,106.576c0,0.561-0.312,1.027-0.934,1.4c-3.609,1.93-7.062,3.889-10.359,5.879
				c-1.432,0.871-2.861,1.773-4.291,2.707c-1.434,0.932-2.832,1.881-4.201,2.846s-2.629,1.93-3.779,2.893
				c-1.15,0.965-2.1,1.883-2.846,2.752c-0.062,0.064-0.062,0.094,0,0.094h0.373c0.561,0,1.197-0.107,1.914-0.326
				c0.715-0.217,1.508-0.467,2.379-0.746c0.871-0.281,1.867-0.527,2.986-0.746s2.395-0.328,3.826-0.328
				c0.809,0,1.539,0.08,2.193,0.234c0.652,0.156,1.166,0.42,1.539,0.793c0.871,1.059,1.648,2.053,2.334,2.986
				c0.621,0.809,1.18,1.633,1.68,2.473c0.496,0.84,0.746,1.51,0.746,2.006c0,0.5-0.25,0.746-0.746,0.746
				c-0.373,0-0.67-0.092-0.887-0.279c-0.219-0.186-0.467-0.373-0.748-0.561c-0.279-0.186-0.668-0.373-1.166-0.559
				c-0.498-0.188-1.213-0.281-2.146-0.281c-0.809,0-1.586,0.127-2.332,0.375c-0.934,0.311-2.133,0.639-3.594,0.979
				c-1.461,0.344-3.002,0.686-4.619,1.027c-1.617,0.34-3.234,0.621-4.852,0.84c-1.619,0.217-3.049,0.326-4.293,0.326
				c-0.25,0-0.639-0.172-1.166-0.514c-0.529-0.342-1.059-0.777-1.586-1.307c-0.529-0.527-0.996-1.133-1.4-1.818
				c-0.406-0.684-0.607-1.369-0.607-2.053c0-1.68,0.934-3.344,2.801-4.994c1.865-1.646,4.137-3.279,6.811-4.898
				c2.676-1.617,5.475-3.188,8.4-4.713c2.922-1.523,5.441-3,7.559-4.432c0.123-0.062,0.201-0.125,0.232-0.188
				c0.031-0.061,0.078-0.123,0.141-0.186l0.094-0.094l-0.375,0.094c-2.611,0.684-4.604,1.135-5.971,1.352
				c-1.369,0.219-2.428,0.328-3.174,0.328c-0.809,0-1.492-0.281-2.053-0.84c-0.498-0.686-0.934-1.369-1.307-2.055
				c-0.312-0.559-0.605-1.133-0.887-1.727c-0.279-0.59-0.42-1.072-0.42-1.446c0-0.808,0.498-1.337,1.494-1.586
				c0.559-0.124,1.367-0.28,2.426-0.467c1.057-0.187,2.254-0.373,3.592-0.56s2.721-0.357,4.154-0.514
				c1.43-0.154,2.799-0.233,4.105-0.233s2.441,0.079,3.406,0.233c0.963,0.156,1.664,0.482,2.1,0.979
				c0.746,0.747,1.354,1.37,1.818,1.867c0.467,0.498,0.824,0.885,1.074,1.167c0.248,0.279,0.404,0.498,0.467,0.652
				C263.384,106.312,263.417,106.453,263.417,106.576z"/>
			<path d="M306.343,106.67c0,0.623-0.281,1.182-0.84,1.68c-4.793,4.355-9.365,8.338-13.719,11.945
				c-1.865,1.555-3.779,3.096-5.738,4.619c-1.961,1.525-3.873,2.932-5.74,4.223c-1.865,1.291-3.607,2.396-5.225,3.318
				c-1.619,0.922-3.02,1.566-4.199,1.936c-0.373,0.123-0.748,0.215-1.121,0.277c-0.311,0.062-0.686,0.107-1.119,0.139
				c-0.436,0.029-0.902,0.045-1.4,0.045c-0.809,0-1.633-0.094-2.473-0.275c-0.84-0.186-1.619-0.555-2.332-1.105
				c-0.717-0.553-1.293-1.322-1.727-2.307c-0.436-0.982-0.654-2.273-0.654-3.873c0-1.055,0.311-2.346,0.934-3.871
				c0.621-1.523,1.414-3.125,2.379-4.805s2.037-3.344,3.221-4.992c1.18-1.648,2.316-3.141,3.406-4.48
				c1.088-1.336,2.053-2.457,2.893-3.359c0.84-0.901,1.414-1.414,1.727-1.54c0.311-0.124,0.652-0.28,1.025-0.467
				c0.311-0.124,0.654-0.248,1.027-0.373c0.373-0.124,0.746-0.187,1.119-0.187c0.436,0,1.104,0.062,2.008,0.187
				c0.9,0.125,1.633,0.312,2.191,0.56c0.062,0.063,0.154,0.126,0.281,0.188c0.061,0.125,0.123,0.232,0.186,0.326
				s0.094,0.203,0.094,0.326c0,0.25-0.219,0.593-0.652,1.027c-2.055,2.115-3.953,4.199-5.693,6.252
				c-1.492,1.805-2.955,3.75-4.387,5.832c-1.432,2.086-2.457,4.061-3.078,5.926c-0.125,0.25-0.25,0.5-0.373,0.748
				c-0.25,0.621-0.375,1.15-0.375,1.586c0,0.686,0.375,1.025,1.121,1.025c0.434,0,1.182-0.186,2.24-0.559
				c3.42-1.867,7.029-3.92,10.824-6.16c3.234-1.928,6.873-4.184,10.918-6.766c4.043-2.58,8.18-5.459,12.412-8.631
				c0.123,0.125,0.246,0.279,0.373,0.467c0.123,0.125,0.232,0.279,0.326,0.467C306.296,106.203,306.343,106.422,306.343,106.67z
				 M293.652,89.873c0,0.312-0.033,0.606-0.094,0.887c-0.062,0.28-0.25,0.576-0.561,0.887c-0.809,1.059-1.711,1.991-2.705,2.8
				c-0.873,0.685-1.836,1.306-2.895,1.866c-1.059,0.56-2.209,0.84-3.451,0.84c-0.312-0.062-0.592-0.187-0.84-0.374
				c-0.561-0.311-0.84-0.87-0.84-1.68c0-0.994,0.34-1.99,1.025-2.985c0.684-0.995,1.508-1.867,2.473-2.613s1.943-1.354,2.939-1.819
				c0.996-0.467,1.805-0.7,2.428-0.7c0.123,0.062,0.279,0.093,0.467,0.093c0.123,0.063,0.246,0.094,0.373,0.094
				c0.123,0,0.248,0.062,0.373,0.187c0.496,0.623,0.84,1.105,1.025,1.446C293.558,89.142,293.652,89.5,293.652,89.873z"/>
			<path d="M341.056,106.576c0,0.623-0.281,1.184-0.84,1.68c-1.307,1.307-3.02,2.879-5.133,4.713
				c-2.115,1.836-4.465,3.732-7.045,5.693c-2.584,1.959-5.32,3.904-8.213,5.832s-5.785,3.672-8.678,5.225
				c-2.895,1.557-5.693,2.801-8.4,3.734c-2.705,0.932-5.148,1.398-7.324,1.398c-4.791,0-7.186-2.924-7.186-8.771
				c0-1.928,0.451-3.902,1.354-5.926c0.9-2.021,2.1-3.996,3.592-5.926c1.494-1.928,3.203-3.732,5.133-5.412
				c1.928-1.68,3.92-3.156,5.973-4.433c2.053-1.274,4.09-2.286,6.111-3.032c2.021-0.747,3.873-1.12,5.553-1.12
				c0.809,0,1.57,0.172,2.287,0.514c0.715,0.343,1.354,0.778,1.912,1.306c0.561,0.529,1.012,1.105,1.354,1.727
				c0.342,0.623,0.514,1.182,0.514,1.68c0,1.119-0.42,2.287-1.26,3.5s-1.914,2.395-3.221,3.545c-1.307,1.152-2.752,2.24-4.338,3.266
				c-1.588,1.027-3.127,1.93-4.619,2.707c-1.494,0.779-2.848,1.4-4.061,1.867s-2.1,0.699-2.658,0.699
				c-0.312,0-0.654-0.094-1.027-0.279c-0.373-0.188-0.717-0.561-1.027-1.121c-0.062,0-0.154-0.029-0.279-0.092
				c-0.25-0.125-0.467-0.188-0.652-0.188c-0.25,0-0.576,0.232-0.98,0.699c-0.406,0.467-0.809,1.043-1.213,1.727
				c-0.406,0.686-0.764,1.416-1.074,2.193c-0.311,0.779-0.467,1.479-0.467,2.1c0,0.871,0.375,1.432,1.121,1.68
				c2.426,0,4.898-0.342,7.418-1.025c2.52-0.686,5.287-1.789,8.307-3.314c3.016-1.523,6.359-3.467,10.031-5.832
				c3.67-2.363,7.869-5.225,12.598-8.584c0.871-0.623,1.773-1.275,2.707-1.961c0.932-0.684,1.896-1.367,2.893-2.053
				c0.123,0.125,0.248,0.279,0.373,0.467c0.123,0.125,0.232,0.279,0.326,0.467C341.009,106.109,341.056,106.328,341.056,106.576z
				 M315.859,105.457c0-0.311-0.186-0.467-0.559-0.467c-0.934,0-2.18,0.529-3.732,1.586c-1.557,1.059-3.096,2.24-4.621,3.547
				c-1.523,1.307-2.846,2.551-3.965,3.732s-1.68,1.93-1.68,2.24c0,0.125,0.094,0.186,0.279,0.186c0.436,0,1.104-0.217,2.006-0.652
				s1.881-0.994,2.939-1.68c1.059-0.684,2.131-1.432,3.221-2.24c1.088-0.807,2.084-1.617,2.986-2.426
				c0.9-0.809,1.646-1.555,2.238-2.24C315.564,106.359,315.859,105.83,315.859,105.457z"/>
		</g>
	</g>
	<path fill="none" d="M120.794,101.3c29.464-13.1,63.304-28.93,61.154-34.666c-2.107-5.615-34.561,4.969-62.594,15.32
		C119.967,84.976,121.104,91.995,120.794,101.3z"/>
	<path fill="none" d="M146.652,114.417c-2.013-3.352-14.267-1.338-27.598,2.049c-1.743,8.781-4.99,18.457-10.713,28.191
		C126.526,134.28,149.747,119.577,146.652,114.417z"/>
	<path d="M101.007,38.679c0,0-9.416-10.885-19.955-9.588c-2.011,0.248-4.046,1.188-6.054,2.643
		c-5.266-2.523-15.02-5.111-32.965-5.305c0,0-4.09,0.129-4.219,2.045c-0.104,1.596,18.623,0.895,30.664,5.912
		c-4.824-0.465-12.625,0.076-25.075,3.605c0,0-3.127,1.029-2.787,2.539c0.306,1.365,17.206-4.449,27.665-1.979
		c-5.795,7.529-10.732,18.205-13.232,27.08c-3.896,13.836-5.01,20.732-1.469,20.818c3.542,0.086,37.232-6.305,46.304-14.512
		S115.434,53.538,101.007,38.679z M98.629,63.563c-4.253,7.158-30.924,9.361-34.174,8.896s-3.188-1.502-1.219-6.719
		c0.671-1.781,2.075-5.402,3.977-9.398c0.873,4.102,4.585,7.104,8.917,6.936c4.845-0.188,8.618-4.268,8.429-9.111
		c-0.188-4.844-4.268-8.617-9.111-8.43c-0.839,0.033-1.641,0.189-2.399,0.438c2.767-3.816,5.872-6.627,9.032-6.623
		c8.637,0.016,12.912,6.736,12.912,6.736S102.881,56.403,98.629,63.563z"/>
	<g>
		<g>
			<path fill="#069599" d="M251.988,158.279c0,0.654,0.004,1.189,0.016,1.602c0.012,0.414,0.027,0.742,0.049,0.98
				c0.021,0.262,0.045,0.459,0.066,0.59c-1.352,0-2.387-0.283-3.105-0.85s-1.078-1.504-1.078-2.812l0.064-15.82h-7.191
				c0-0.98,0.273-1.766,0.816-2.354c0.545-0.588,1.32-0.883,2.322-0.883h15.232c0,0.98-0.273,1.766-0.818,2.354
				s-1.318,0.883-2.32,0.883h-4.086L251.988,158.279z"/>
			<path fill="#069599" d="M275.816,158.018v0.23c0,0.74-0.131,1.318-0.391,1.732c-0.219,0.436-0.557,0.762-1.014,0.98
				c-0.414,0.24-0.889,0.375-1.422,0.408c-0.535,0.033-1.02,0.061-1.455,0.082c-1.982,0.086-3.689-0.018-5.115-0.311
				c-1.428-0.295-2.605-0.855-3.531-1.684s-1.613-1.955-2.059-3.383c-0.447-1.428-0.67-3.221-0.67-5.379v-6.178
				c0-1.48,0.229-2.646,0.686-3.496c0.24-0.438,0.523-0.785,0.85-1.047c0.328-0.262,0.709-0.479,1.145-0.654
				c0.283-0.107,0.578-0.201,0.883-0.277s0.631-0.137,0.98-0.18c0.457-0.043,0.938-0.076,1.438-0.098
				c0.502-0.021,1.025-0.033,1.57-0.033h2.877c1.395,0,2.396-0.021,3.006-0.064c0.611-0.045,1.002-0.076,1.178-0.1h0.064h0.197
				v0.197c0,0.74-0.131,1.318-0.393,1.732c-0.24,0.414-0.578,0.752-1.014,1.014c-0.436,0.217-0.898,0.348-1.389,0.391
				c-0.49,0.045-0.986,0.066-1.488,0.066h-5.557c-0.131,0.021-0.24,0.043-0.326,0.064c-0.088,0.023-0.164,0.055-0.229,0.1
				c-0.131,0.064-0.23,0.152-0.295,0.26c-0.088,0.109-0.143,0.258-0.164,0.441c-0.021,0.186-0.031,0.398-0.031,0.639l0.098,3.988
				h8.041c0,0.98-0.273,1.764-0.818,2.354c-0.545,0.588-1.318,0.881-2.32,0.881h-4.936c-0.043,1.461,0.055,2.676,0.295,3.646
				c0.238,0.969,0.625,1.738,1.16,2.305c0.533,0.566,1.23,0.969,2.092,1.209s1.891,0.359,3.088,0.359
				c1.418,0,2.512-0.021,3.285-0.066c0.773-0.043,1.248-0.076,1.424-0.098h0.064L275.816,158.018z"/>
			<path fill="#069599" d="M292.945,158.018v0.23c0,0.74-0.131,1.318-0.393,1.732c-0.219,0.436-0.555,0.762-1.014,0.98
				c-0.414,0.24-0.889,0.375-1.422,0.408s-1.018,0.061-1.455,0.082c-1.982,0.086-3.688-0.018-5.115-0.311
				c-1.428-0.295-2.604-0.855-3.529-1.684c-0.928-0.828-1.613-1.955-2.061-3.383s-0.67-3.221-0.67-5.379v-6.178
				c0-1.48,0.229-2.646,0.688-3.496c0.238-0.438,0.521-0.785,0.85-1.047c0.326-0.262,0.707-0.479,1.145-0.654
				c0.281-0.107,0.576-0.201,0.881-0.277c0.307-0.076,0.633-0.137,0.982-0.18c0.457-0.043,0.936-0.076,1.438-0.098
				c0.5-0.021,1.023-0.033,1.568-0.033h2.877c1.395,0,2.396-0.021,3.008-0.064c0.609-0.045,1.002-0.076,1.176-0.1h0.066h0.195v0.197
				c0,0.74-0.131,1.318-0.393,1.732c-0.24,0.414-0.576,0.752-1.012,1.014c-0.438,0.217-0.9,0.348-1.391,0.391
				c-0.49,0.045-0.986,0.066-1.486,0.066h-5.557c-0.131,0.021-0.24,0.043-0.328,0.064c-0.086,0.023-0.162,0.055-0.229,0.1
				c-0.131,0.064-0.229,0.152-0.295,0.26c-0.086,0.109-0.141,0.258-0.162,0.441c-0.021,0.186-0.033,0.398-0.033,0.639l0.098,3.988
				h8.041c0,0.98-0.271,1.764-0.816,2.354c-0.545,0.588-1.318,0.881-2.32,0.881h-4.936c-0.045,1.461,0.053,2.676,0.293,3.646
				c0.24,0.969,0.627,1.738,1.16,2.305c0.535,0.566,1.232,0.969,2.092,1.209c0.861,0.24,1.891,0.359,3.09,0.359
				c1.416,0,2.512-0.021,3.285-0.066c0.773-0.043,1.248-0.076,1.422-0.098h0.064L292.945,158.018z"/>
			<path fill="#069599" d="M313.177,161.189c-0.152,0.043-0.326,0.088-0.521,0.131c-0.176,0.043-0.365,0.076-0.572,0.098
				s-0.432,0.033-0.67,0.033c-1.549,0-2.807-0.35-3.775-1.047c-0.971-0.697-1.814-1.775-2.535-3.236
				c-0.174-0.326-0.402-0.789-0.686-1.389s-0.594-1.275-0.932-2.027s-0.697-1.553-1.078-2.402c-0.383-0.85-0.758-1.688-1.129-2.516
				c-0.871-1.939-1.809-4.033-2.811-6.277l0.131,15.723c0.021,0.654,0.037,1.189,0.049,1.602c0.012,0.414,0.027,0.742,0.049,0.98
				c0.021,0.262,0.043,0.459,0.066,0.59c-1.352,0-2.387-0.279-3.105-0.834c-0.721-0.557-1.08-1.488-1.08-2.795v-18.828
				c0.152-0.043,0.328-0.088,0.523-0.131c0.174-0.043,0.365-0.076,0.572-0.098s0.43-0.033,0.67-0.033
				c1.721,0,3.105,0.375,4.152,1.127c1.045,0.752,1.971,1.912,2.777,3.482c0.109,0.217,0.279,0.572,0.508,1.062
				s0.49,1.068,0.783,1.732c0.295,0.664,0.615,1.379,0.965,2.141c0.348,0.764,0.697,1.537,1.047,2.32
				c0.805,1.832,1.678,3.824,2.615,5.982l-0.1-14.219c0-1.285,0.359-2.213,1.08-2.779c0.719-0.566,1.754-0.85,3.105-0.85
				c-0.023,0.152-0.045,0.359-0.066,0.621c-0.021,0.24-0.039,0.561-0.049,0.965c-0.012,0.402-0.016,0.932-0.016,1.584
				L313.177,161.189z"/>
		</g>
	</g>
	<path fill="#FEBC11" d="M117.719,85.122c-14.03,5.18-26.927,10.293-34.383,13.297c1.364,6.467,2.202,12.604,2.619,18.391
		c7.676-3.611,20.755-9.248,34.839-15.51c0.245-7.361-0.415-13.285-1.005-16.938C119.099,84.616,118.404,84.868,117.719,85.122z"/>
	<g>
		<path fill="#FEBC11" d="M119.051,116.479c0.002-0.004,0.004-0.01,0.004-0.014c-0.009,0.002-0.02,0.006-0.03,0.008
			C119.033,116.476,119.044,116.478,119.051,116.479z"/>
		<path fill="#FEBC11" d="M116.529,119.505c-11.127,2.828-22.985,6.609-30.278,9.031c-0.269,11.893-2.255,21.965-4.725,30.025
			c2.097-0.922,4.528-2.02,7.026-3.219c2.439-1.168,10.452-5.357,19.789-10.686c5.174-8.801,8.319-17.551,10.164-25.639
			C117.848,119.181,117.194,119.337,116.529,119.505z"/>
	</g>
	<g>
		<path d="M78.091,168.032c-3.697,8.73-7.25,13.363-7.25,13.363c7.932-4.822,14.637-9.986,20.306-15.334
			C86.732,166.782,82.21,167.452,78.091,168.032z"/>
		<path d="M108.342,144.657c18.078-10.562,41.405-25.08,38.311-30.24c-2.013-3.352-14.267-1.338-27.598,2.049
			c-12.502,3.176-25.941,7.561-32.773,9.865c0.013-3.059-0.09-6.234-0.326-9.521c7.676-3.611,20.755-9.248,34.839-15.51
			c29.464-13.1,63.304-28.93,61.154-34.666c-2.107-5.615-34.561,4.969-62.594,15.32c-15.469,5.713-29.583,11.352-36.519,14.162
			c-1.233-5.354-2.896-11.588-2.896-11.588s98.571-40.07,109.5-19.457c10.934,20.615-47.784,39.977-47.784,39.977
			s31.61,12.258,7.495,33.42c0,0-24.635,21.875-70.221,27.516c0,0,1.254-3.209,2.597-7.422
			C81.526,158.562,93.805,153.151,108.342,144.657z"/>
	</g>
</g>
</svg>
