<?xml version="1.0" standalone="no"?>
<!DOCTYPE svg PUBLIC "-//W3C//DTD SVG 20010904//EN"
 "http://www.w3.org/TR/2001/REC-SVG-20010904/DTD/svg10.dtd">
<svg version="1.0" xmlns="http://www.w3.org/2000/svg"
 width="16.000000pt" height="16.000000pt" viewBox="0 0 16.000000 16.000000"
 preserveAspectRatio="xMidYMid meet">
<metadata>
Created by potrace 1.11, written by Peter Selinger 2001-2013
</metadata>
<g transform="translate(0.000000,16.000000) scale(0.003419,-0.003419)"
fill="#000000" stroke="none">
<path d="M94 4669 c-37 -10 -72 -46 -58 -59 10 -9 123 -26 249 -35 44 -4 87
-8 95 -10 8 -2 40 -7 70 -10 165 -18 376 -65 470 -103 20 -9 12 -10 -45 -9
-92 1 -205 -10 -340 -34 -111 -20 -307 -68 -357 -88 -31 -12 -68 -46 -68 -62
0 -16 84 -7 245 24 180 35 248 42 415 42 139 0 198 -8 173 -23 -41 -26 -232
-370 -298 -537 -15 -38 -31 -79 -36 -90 -38 -89 -139 -468 -157 -584 -15 -101
-10 -175 13 -201 18 -20 26 -22 90 -17 194 17 656 129 945 229 233 81 349 147
464 262 237 239 288 448 165 686 -50 96 -109 175 -207 273 -179 183 -360 277
-530 277 -78 0 -131 -15 -194 -53 -35 -21 -52 -26 -65 -19 -63 33 -288 95
-388 107 -27 4 -57 8 -65 10 -8 2 -46 7 -85 10 -38 3 -90 8 -114 11 -90 9
-357 12 -387 3z m1424 -410 c131 -43 245 -157 328 -332 80 -169 76 -316 -10
-402 -86 -85 -283 -153 -577 -200 -132 -21 -269 -33 -362 -32 -100 2 -110 4
-127 24 -15 19 -16 30 -9 63 11 48 44 136 105 282 l47 110 23 -47 c50 -106
140 -160 253 -153 75 5 124 25 170 70 46 45 72 102 78 169 15 158 -107 285
-269 283 l-68 -2 30 38 c114 144 226 181 388 129z"/>
<path d="M3948 3685 c-2 -2 -34 -6 -72 -10 -212 -17 -603 -99 -966 -202 -69
-19 -132 -36 -140 -38 -8 -2 -109 -33 -225 -69 -346 -107 -690 -228 -1191
-418 -50 -19 -51 -21 -44 -51 4 -18 20 -79 35 -137 14 -58 29 -118 31 -135 3
-16 9 -33 13 -38 4 -4 111 34 237 84 1163 463 2097 773 2508 834 121 17 236 1
248 -37 21 -63 -88 -165 -340 -315 -126 -76 -585 -312 -797 -410 -60 -28 -146
-68 -190 -89 -129 -60 -515 -233 -516 -231 0 1 -2 74 -5 162 -2 88 -6 174 -8
190 -2 17 -8 58 -11 93 -4 34 -9 62 -11 62 -9 0 -673 -254 -930 -355 l-170
-68 22 -116 c12 -64 25 -141 29 -171 3 -30 8 -66 10 -80 2 -14 7 -59 10 -100
4 -41 8 -91 10 -110 2 -19 4 -86 6 -147 1 -62 6 -113 12 -113 5 0 84 24 175
54 262 86 577 181 662 201 8 2 69 17 135 34 117 29 269 64 330 75 17 3 39 8
50 10 148 30 346 38 408 17 45 -15 68 -53 56 -93 -18 -66 -110 -162 -276 -291
-109 -83 -446 -305 -643 -422 -91 -54 -182 -108 -202 -121 l-37 -23 64 122
c82 156 143 308 194 477 41 134 48 170 34 170 -37 0 -506 -135 -805 -232
l-158 -50 -1 -72 c-1 -39 -2 -84 -4 -101 -12 -135 -17 -177 -20 -196 -3 -13
-7 -45 -10 -72 -3 -28 -8 -53 -9 -56 -2 -3 -7 -27 -10 -52 -15 -113 -130 -519
-161 -569 -9 -14 51 -8 240 25 205 36 360 72 559 131 579 171 1175 492 1420
764 225 251 226 487 3 697 -62 59 -181 139 -264 178 -30 15 -51 30 -47 34 5 4
56 25 114 46 159 58 368 149 531 230 608 301 882 594 805 858 -36 123 -132
198 -298 233 -34 7 -384 15 -390 9z"/>
<path d="M1567 454 c-1 -1 -24 -5 -52 -8 -27 -4 -61 -8 -75 -11 -14 -2 -41 -6
-60 -9 -19 -2 -56 -8 -82 -11 l-48 -7 -64 -132 c-36 -72 -83 -160 -106 -195
-23 -35 -40 -65 -38 -67 13 -12 415 285 548 405 l45 41 -33 -2 c-18 -1 -34 -3
-35 -4z"/>
</g>
</svg>
