<?xml version="1.0" encoding="utf-8"?>
<!-- Generator: Adobe Illustrator 16.0.0, SVG Export Plug-In . SVG Version: 6.00 Build 0)  -->
<!DOCTYPE svg PUBLIC "-//W3C//DTD SVG 1.1//EN" "http://www.w3.org/Graphics/SVG/1.1/DTD/svg11.dtd">
<svg version="1.1" id="Layer_1" xmlns="http://www.w3.org/2000/svg" xmlns:xlink="http://www.w3.org/1999/xlink" x="0px" y="0px"
	 width="147.891px" height="78.75px" viewBox="0 0 147.891 78.75" enable-background="new 0 0 147.891 78.75" xml:space="preserve">
<g>
	<g>
		<g>
			<path fill="#FFFFFF" d="M81.695,41.107c0,0.305-0.136,0.577-0.405,0.819c-2.291,2.126-4.48,4.07-6.567,5.833
				c-0.893,0.756-1.809,1.509-2.748,2.252c-0.939,0.747-1.854,1.431-2.75,2.059c-0.894,0.632-1.728,1.174-2.502,1.625
				c-0.773,0.447-1.446,0.765-2.012,0.943c-0.176,0.061-0.355,0.106-0.535,0.136c-0.15,0.03-0.328,0.051-0.537,0.066
				c-0.209,0.015-0.431,0.024-0.67,0.024c-0.389,0-0.781-0.048-1.184-0.136c-0.403-0.091-0.777-0.27-1.118-0.539
				c-0.342-0.272-0.619-0.647-0.826-1.128c-0.209-0.481-0.313-1.11-0.313-1.89c0-0.518,0.148-1.146,0.447-1.89
				c0.297-0.744,0.678-1.524,1.14-2.347c0.462-0.819,0.975-1.633,1.543-2.437c0.563-0.804,1.108-1.533,1.63-2.185
				c0.522-0.653,0.982-1.199,1.386-1.642c0.402-0.437,0.678-0.688,0.826-0.751c0.149-0.061,0.312-0.138,0.492-0.227
				c0.148-0.061,0.313-0.121,0.491-0.183c0.18-0.062,0.359-0.091,0.537-0.091c0.209,0,0.527,0.029,0.962,0.091
				c0.43,0.062,0.782,0.154,1.05,0.272c0.029,0.031,0.075,0.065,0.134,0.092c0.029,0.063,0.059,0.114,0.089,0.159
				c0.029,0.047,0.046,0.102,0.046,0.161c0,0.122-0.105,0.292-0.314,0.5c-0.984,1.034-1.893,2.051-2.727,3.051
				c-0.714,0.883-1.414,1.83-2.1,2.849c-0.687,1.019-1.178,1.983-1.475,2.891c-0.061,0.124-0.121,0.245-0.18,0.366
				c-0.119,0.305-0.18,0.562-0.18,0.773c0,0.336,0.18,0.502,0.539,0.502c0.207,0,0.564-0.091,1.071-0.272
				c1.639-0.91,3.368-1.914,5.186-3.009c1.548-0.94,3.29-2.041,5.229-3.302c1.937-1.259,3.918-2.663,5.94-4.212
				c0.064,0.061,0.121,0.136,0.182,0.227c0.061,0.061,0.112,0.136,0.154,0.229C81.672,40.879,81.695,40.986,81.695,41.107z
				 M75.617,32.907c0,0.153-0.015,0.297-0.045,0.433c-0.03,0.136-0.118,0.282-0.269,0.435c-0.387,0.514-0.819,0.971-1.296,1.367
				c-0.419,0.333-0.879,0.635-1.387,0.909c-0.506,0.274-1.057,0.41-1.652,0.41c-0.15-0.029-0.282-0.091-0.401-0.182
				c-0.268-0.151-0.402-0.426-0.402-0.82c0-0.486,0.161-0.974,0.49-1.458c0.328-0.485,0.724-0.912,1.184-1.274
				c0.462-0.366,0.931-0.661,1.409-0.889c0.478-0.227,0.864-0.34,1.161-0.34c0.059,0.031,0.136,0.043,0.226,0.043
				c0.059,0.03,0.119,0.048,0.178,0.048s0.119,0.029,0.178,0.087c0.238,0.306,0.403,0.542,0.493,0.708
				C75.572,32.552,75.617,32.726,75.617,32.907z"/>
			<path fill="#FFFFFF" d="M93.807,41.062c0,0.272-0.151,0.502-0.448,0.683c-1.729,0.94-3.384,1.896-4.961,2.87
				c-0.688,0.426-1.371,0.865-2.055,1.321c-0.685,0.456-1.357,0.916-2.013,1.391c-0.656,0.469-1.259,0.94-1.809,1.409
				c-0.553,0.472-1.008,0.919-1.363,1.346c-0.03,0.03-0.03,0.042,0,0.042h0.178c0.27,0,0.574-0.048,0.916-0.158
				c0.343-0.105,0.724-0.229,1.14-0.365c0.418-0.137,0.896-0.257,1.431-0.363c0.535-0.106,1.149-0.16,1.832-0.16
				c0.387,0,0.738,0.039,1.052,0.115c0.312,0.076,0.558,0.206,0.735,0.387c0.417,0.517,0.793,1.001,1.119,1.457
				c0.297,0.396,0.565,0.798,0.804,1.207c0.236,0.412,0.357,0.738,0.357,0.98c0,0.245-0.121,0.366-0.357,0.366
				c-0.178,0-0.32-0.045-0.425-0.139c-0.103-0.087-0.222-0.182-0.357-0.272c-0.134-0.091-0.32-0.182-0.561-0.272
				c-0.234-0.091-0.58-0.14-1.027-0.14c-0.387,0-0.759,0.064-1.116,0.185c-0.446,0.152-1.022,0.312-1.72,0.479
				c-0.702,0.166-1.44,0.333-2.213,0.501c-0.775,0.164-1.549,0.303-2.321,0.411c-0.779,0.103-1.462,0.158-2.058,0.158
				c-0.121,0-0.306-0.082-0.561-0.251c-0.253-0.167-0.504-0.378-0.759-0.639c-0.253-0.257-0.478-0.55-0.67-0.886
				c-0.194-0.335-0.29-0.668-0.29-1.004c0-0.819,0.447-1.633,1.341-2.437c0.893-0.804,1.98-1.6,3.26-2.392
				c1.282-0.79,2.623-1.558,4.024-2.298c1.401-0.744,2.604-1.467,3.62-2.165c0.057-0.032,0.098-0.061,0.112-0.092
				c0.015-0.029,0.036-0.059,0.065-0.089l0.046-0.046l-0.178,0.046c-1.253,0.333-2.207,0.553-2.861,0.659
				c-0.656,0.106-1.163,0.16-1.521,0.16c-0.387,0-0.713-0.139-0.982-0.409c-0.238-0.337-0.448-0.67-0.626-1.004
				c-0.148-0.272-0.29-0.552-0.424-0.842c-0.135-0.287-0.203-0.525-0.203-0.706c0-0.395,0.24-0.655,0.718-0.776
				c0.267-0.059,0.652-0.136,1.16-0.228c0.506-0.089,1.081-0.182,1.722-0.271c0.642-0.094,1.303-0.175,1.986-0.251
				c0.688-0.076,1.343-0.115,1.968-0.115c0.626,0,1.169,0.04,1.634,0.115c0.46,0.076,0.795,0.234,1.004,0.478
				c0.355,0.364,0.65,0.668,0.87,0.91c0.224,0.242,0.395,0.434,0.516,0.57c0.117,0.136,0.192,0.246,0.223,0.319
				C93.79,40.932,93.807,41.001,93.807,41.062z"/>
			<path fill="#FFFFFF" d="M109.046,41.062c0,0.272-0.148,0.502-0.447,0.683c-1.728,0.94-3.384,1.896-4.959,2.87
				c-0.688,0.426-1.37,0.865-2.056,1.321c-0.688,0.456-1.357,0.916-2.016,1.391c-0.655,0.469-1.257,0.94-1.81,1.409
				c-0.552,0.472-1,0.919-1.361,1.346c-0.029,0.03-0.029,0.042,0,0.042h0.178c0.268,0,0.571-0.048,0.92-0.158
				c0.343-0.105,0.72-0.229,1.141-0.365c0.413-0.137,0.889-0.257,1.428-0.363c0.535-0.106,1.145-0.16,1.832-0.16
				c0.387,0,0.738,0.039,1.048,0.115c0.315,0.076,0.561,0.206,0.742,0.387c0.414,0.517,0.786,1.001,1.115,1.457
				c0.297,0.396,0.566,0.798,0.805,1.207c0.238,0.412,0.355,0.738,0.355,0.98c0,0.245-0.117,0.366-0.355,0.366
				c-0.182,0-0.321-0.045-0.427-0.139c-0.103-0.087-0.224-0.182-0.355-0.272c-0.134-0.091-0.322-0.182-0.558-0.272
				c-0.239-0.091-0.58-0.14-1.029-0.14c-0.387,0-0.76,0.064-1.117,0.185c-0.447,0.152-1.022,0.312-1.721,0.479
				c-0.701,0.166-1.439,0.333-2.213,0.501c-0.775,0.164-1.546,0.303-2.323,0.411c-0.776,0.103-1.46,0.158-2.056,0.158
				c-0.12,0-0.31-0.082-0.561-0.251c-0.253-0.167-0.504-0.378-0.758-0.639c-0.255-0.257-0.479-0.55-0.671-0.886
				c-0.194-0.335-0.291-0.668-0.291-1.004c0-0.819,0.446-1.633,1.343-2.437c0.892-0.804,1.98-1.6,3.259-2.392
				c1.282-0.79,2.626-1.558,4.025-2.298c1.397-0.744,2.606-1.467,3.62-2.165c0.057-0.032,0.097-0.061,0.111-0.092
				c0.015-0.029,0.035-0.059,0.069-0.089l0.043-0.046l-0.182,0.046c-1.25,0.333-2.204,0.553-2.858,0.659
				c-0.655,0.106-1.163,0.16-1.521,0.16c-0.388,0-0.716-0.139-0.985-0.409c-0.236-0.337-0.445-0.67-0.623-1.004
				c-0.148-0.272-0.291-0.552-0.427-0.842c-0.13-0.287-0.199-0.525-0.199-0.706c0-0.395,0.239-0.655,0.714-0.776
				c0.27-0.059,0.656-0.136,1.163-0.228c0.508-0.089,1.079-0.182,1.721-0.271c0.642-0.094,1.305-0.175,1.989-0.251
				c0.684-0.076,1.342-0.115,1.966-0.115c0.627,0,1.171,0.04,1.633,0.115c0.463,0.076,0.795,0.234,1.004,0.478
				c0.357,0.364,0.648,0.668,0.872,0.91s0.396,0.434,0.517,0.57c0.117,0.136,0.194,0.246,0.222,0.319
				C109.027,40.932,109.046,41.001,109.046,41.062z"/>
			<path fill="#FFFFFF" d="M129.602,41.107c0,0.305-0.129,0.577-0.397,0.819c-2.296,2.126-4.489,4.07-6.572,5.833
				c-0.892,0.756-1.808,1.509-2.748,2.252c-0.938,0.747-1.854,1.431-2.746,2.059c-0.896,0.632-1.729,1.174-2.506,1.625
				c-0.775,0.447-1.445,0.765-2.012,0.943c-0.178,0.061-0.355,0.106-0.535,0.136c-0.148,0.03-0.329,0.051-0.535,0.066
				c-0.208,0.015-0.432,0.024-0.672,0.024c-0.391,0-0.782-0.048-1.184-0.136c-0.403-0.091-0.778-0.27-1.115-0.539
				c-0.347-0.272-0.621-0.647-0.83-1.128c-0.209-0.481-0.313-1.11-0.313-1.89c0-0.518,0.15-1.146,0.447-1.89
				c0.298-0.744,0.676-1.524,1.143-2.347c0.458-0.819,0.973-1.633,1.539-2.437c0.564-0.804,1.112-1.533,1.633-2.185
				c0.52-0.653,0.981-1.199,1.385-1.642c0.401-0.437,0.678-0.688,0.828-0.751c0.148-0.061,0.312-0.138,0.489-0.227
				c0.148-0.061,0.314-0.121,0.491-0.183c0.181-0.062,0.358-0.091,0.538-0.091c0.211,0,0.529,0.029,0.962,0.091
				c0.429,0.062,0.782,0.154,1.048,0.272c0.031,0.031,0.073,0.065,0.134,0.092c0.031,0.063,0.062,0.114,0.09,0.159
				c0.027,0.047,0.046,0.102,0.046,0.161c0,0.122-0.104,0.292-0.312,0.5c-0.985,1.034-1.896,2.051-2.728,3.051
				c-0.717,0.883-1.415,1.83-2.102,2.849c-0.686,1.019-1.177,1.983-1.475,2.891c-0.061,0.124-0.118,0.245-0.18,0.366
				c-0.121,0.305-0.178,0.562-0.178,0.773c0,0.336,0.178,0.502,0.538,0.502c0.205,0,0.566-0.091,1.07-0.272
				c1.64-0.91,3.369-1.914,5.187-3.009c1.548-0.94,3.288-2.041,5.229-3.302c1.935-1.259,3.919-2.663,5.945-4.212
				c0.057,0.061,0.113,0.136,0.178,0.227c0.06,0.061,0.111,0.136,0.157,0.229C129.581,40.879,129.602,40.986,129.602,41.107z
				 M123.528,32.907c0,0.153-0.021,0.297-0.046,0.433c-0.031,0.136-0.121,0.282-0.27,0.435c-0.387,0.514-0.82,0.971-1.295,1.367
				c-0.42,0.333-0.88,0.635-1.387,0.909c-0.506,0.274-1.056,0.41-1.654,0.41c-0.148-0.029-0.282-0.091-0.399-0.182
				c-0.27-0.151-0.405-0.426-0.405-0.82c0-0.486,0.163-0.974,0.493-1.458c0.326-0.485,0.72-0.912,1.182-1.274
				c0.463-0.366,0.933-0.661,1.412-0.889c0.475-0.227,0.863-0.34,1.158-0.34c0.061,0.031,0.137,0.043,0.224,0.043
				c0.062,0.03,0.12,0.048,0.179,0.048c0.061,0,0.123,0.029,0.178,0.087c0.24,0.306,0.405,0.542,0.493,0.708
				C123.482,32.552,123.528,32.726,123.528,32.907z"/>
			<path fill="#FFFFFF" d="M146.23,41.062c0,0.303-0.138,0.578-0.403,0.82c-0.626,0.638-1.447,1.404-2.458,2.3
				c-1.014,0.896-2.138,1.824-3.375,2.779c-1.24,0.956-2.548,1.905-3.934,2.845c-1.385,0.943-2.77,1.793-4.154,2.552
				c-1.386,0.759-2.729,1.367-4.025,1.823c-1.293,0.454-2.464,0.684-3.507,0.684c-2.293,0-3.442-1.43-3.442-4.285
				c0-0.94,0.219-1.905,0.649-2.894c0.43-0.982,1.005-1.95,1.722-2.891c0.715-0.94,1.533-1.821,2.459-2.641
				c0.923-0.821,1.876-1.541,2.861-2.165c0.979-0.622,1.955-1.114,2.924-1.48c0.969-0.364,1.855-0.547,2.66-0.547
				c0.385,0,0.749,0.086,1.094,0.251c0.343,0.168,0.65,0.383,0.918,0.638c0.268,0.258,0.483,0.538,0.646,0.844
				c0.163,0.302,0.245,0.578,0.245,0.819c0,0.547-0.199,1.116-0.603,1.708c-0.404,0.592-0.92,1.167-1.541,1.733
				c-0.626,0.559-1.318,1.091-2.081,1.59c-0.756,0.501-1.493,0.943-2.211,1.321c-0.717,0.381-1.359,0.683-1.94,0.913
				c-0.584,0.23-1.007,0.338-1.276,0.338c-0.148,0-0.312-0.042-0.493-0.133c-0.178-0.09-0.343-0.275-0.489-0.55
				c-0.031,0-0.073-0.012-0.134-0.042c-0.117-0.061-0.224-0.094-0.314-0.094c-0.118,0-0.275,0.115-0.468,0.345
				c-0.194,0.223-0.387,0.508-0.58,0.841c-0.194,0.335-0.367,0.692-0.516,1.07c-0.151,0.384-0.224,0.723-0.224,1.025
				c0,0.426,0.178,0.698,0.535,0.819c1.165,0,2.347-0.166,3.555-0.499c1.209-0.333,2.529-0.874,3.979-1.618
				c1.444-0.744,3.045-1.693,4.802-2.849c1.759-1.152,3.771-2.549,6.035-4.188c0.418-0.305,0.85-0.623,1.297-0.958
				c0.445-0.336,0.907-0.668,1.385-1.003c0.058,0.06,0.119,0.136,0.178,0.229c0.059,0.061,0.11,0.136,0.158,0.23
				C146.209,40.834,146.23,40.941,146.23,41.062z M134.161,40.515c0-0.151-0.086-0.229-0.268-0.229c-0.445,0-1.04,0.259-1.784,0.776
				c-0.747,0.514-1.486,1.093-2.217,1.731c-0.729,0.636-1.365,1.245-1.899,1.822c-0.535,0.574-0.805,0.94-0.805,1.095
				c0,0.06,0.046,0.087,0.134,0.087c0.209,0,0.533-0.106,0.962-0.317c0.433-0.212,0.901-0.484,1.408-0.82
				c0.506-0.335,1.02-0.701,1.543-1.093c0.521-0.395,0.998-0.788,1.429-1.184c0.433-0.396,0.79-0.759,1.072-1.094
				C134.021,40.953,134.161,40.696,134.161,40.515z"/>
		</g>
	</g>
	<path fill="none" d="M40.742,38.486c14.111-6.396,30.319-14.122,29.288-16.921c-1.01-2.743-16.553,2.424-29.979,7.478
		C40.344,30.517,40.89,33.944,40.742,38.486z"/>
	<path fill="none" d="M53.125,44.89c-0.964-1.638-6.832-0.653-13.218,1c-0.834,4.285-2.39,9.009-5.131,13.759
		C43.487,54.584,54.607,47.406,53.125,44.89z"/>
	<path fill="#FFFFFF" d="M31.265,7.918c0,0-4.51-5.312-9.558-4.681c-0.962,0.121-1.938,0.578-2.899,1.289
		c-2.522-1.231-7.193-2.494-15.786-2.589c0,0-1.959,0.065-2.021,0.998c-0.049,0.78,8.919,0.438,14.686,2.884
		c-2.31-0.225-6.046,0.04-12.008,1.763c0,0-1.498,0.502-1.336,1.238c0.146,0.668,8.241-2.171,13.25-0.966
		c-2.774,3.677-5.141,8.887-6.337,13.219c-1.866,6.753-2.398,10.122-0.702,10.163c1.695,0.041,17.831-3.077,22.175-7.082
		C35.072,20.146,38.173,15.169,31.265,7.918z M30.126,20.064c-2.038,3.493-14.811,4.569-16.367,4.342
		c-1.557-0.227-1.526-0.732-0.583-3.281c0.321-0.867,0.993-2.636,1.903-4.586c0.419,2.003,2.197,3.468,4.271,3.387
		c2.32-0.091,4.127-2.083,4.036-4.448c-0.089-2.365-2.042-4.207-4.363-4.114c-0.402,0.017-0.786,0.092-1.15,0.213
		c1.326-1.864,2.813-3.235,4.326-3.232c4.137,0.006,6.184,3.288,6.184,3.288S32.162,16.571,30.126,20.064z"/>
	<g>
		<g>
			<path fill="#069599" d="M103.573,66.299c0,0.32,0,0.581,0.006,0.783c0.007,0.202,0.013,0.362,0.023,0.48
				c0.013,0.128,0.022,0.224,0.033,0.285c-0.648,0-1.144-0.137-1.487-0.414c-0.347-0.276-0.517-0.732-0.517-1.373l0.029-7.723
				h-3.442c0-0.477,0.132-0.861,0.39-1.146c0.263-0.29,0.631-0.433,1.112-0.433h7.293c0,0.478-0.13,0.862-0.39,1.149
				c-0.261,0.288-0.632,0.429-1.112,0.429h-1.956L103.573,66.299z"/>
			<path fill="#069599" d="M114.985,66.171v0.112c0,0.363-0.064,0.645-0.187,0.847c-0.106,0.211-0.268,0.372-0.487,0.481
				c-0.196,0.114-0.424,0.18-0.682,0.196c-0.257,0.019-0.487,0.034-0.694,0.04c-0.953,0.042-1.771-0.005-2.45-0.148
				c-0.687-0.145-1.249-0.42-1.694-0.822c-0.443-0.408-0.773-0.955-0.981-1.651c-0.219-0.7-0.324-1.572-0.324-2.628v-3.015
				c0-0.723,0.113-1.291,0.327-1.705c0.117-0.215,0.251-0.384,0.407-0.511c0.157-0.13,0.339-0.235,0.552-0.324
				c0.133-0.048,0.274-0.096,0.423-0.133c0.143-0.039,0.299-0.066,0.469-0.088c0.218-0.021,0.447-0.039,0.689-0.048
				c0.239-0.009,0.488-0.015,0.749-0.015h1.379c0.669,0,1.147-0.012,1.437-0.033c0.293-0.021,0.482-0.033,0.566-0.048h0.033h0.091
				v0.097c0,0.363-0.062,0.645-0.188,0.847c-0.113,0.203-0.274,0.366-0.483,0.493c-0.209,0.105-0.433,0.169-0.661,0.193
				c-0.24,0.021-0.477,0.03-0.719,0.03h-2.66c-0.061,0.013-0.115,0.025-0.153,0.034c-0.042,0.012-0.079,0.027-0.112,0.048
				c-0.063,0.03-0.109,0.076-0.139,0.127c-0.042,0.055-0.07,0.124-0.079,0.215c-0.013,0.091-0.019,0.196-0.019,0.312l0.048,1.947
				h3.853c0,0.481-0.132,0.859-0.39,1.149c-0.264,0.288-0.634,0.43-1.112,0.43h-2.365c-0.019,0.713,0.024,1.306,0.14,1.778
				c0.115,0.475,0.302,0.85,0.557,1.127c0.257,0.275,0.59,0.472,1.004,0.589c0.41,0.118,0.907,0.176,1.475,0.176
				c0.684,0,1.208-0.009,1.576-0.033c0.368-0.022,0.599-0.037,0.68-0.048h0.034L114.985,66.171z"/>
			<path fill="#069599" d="M123.189,66.171v0.112c0,0.363-0.064,0.645-0.189,0.847c-0.105,0.211-0.266,0.372-0.487,0.481
				c-0.197,0.114-0.425,0.18-0.68,0.196c-0.252,0.019-0.488,0.034-0.694,0.04c-0.952,0.042-1.77-0.005-2.453-0.148
				c-0.683-0.145-1.245-0.42-1.69-0.822c-0.443-0.408-0.77-0.955-0.985-1.651c-0.215-0.7-0.321-1.572-0.321-2.628v-3.015
				c0-0.723,0.11-1.291,0.328-1.705c0.113-0.215,0.251-0.384,0.407-0.511c0.157-0.13,0.339-0.235,0.547-0.324
				c0.138-0.048,0.279-0.096,0.424-0.133c0.145-0.039,0.302-0.066,0.473-0.088c0.218-0.021,0.447-0.039,0.685-0.048
				c0.24-0.009,0.491-0.015,0.752-0.015h1.377c0.673,0,1.151-0.012,1.44-0.033c0.293-0.021,0.481-0.033,0.566-0.048h0.032h0.09
				v0.097c0,0.363-0.061,0.645-0.187,0.847c-0.115,0.203-0.274,0.366-0.483,0.493c-0.209,0.105-0.433,0.169-0.665,0.193
				c-0.236,0.021-0.473,0.03-0.711,0.03H118.1c-0.064,0.013-0.115,0.025-0.157,0.034c-0.041,0.012-0.075,0.027-0.108,0.048
				c-0.064,0.03-0.109,0.076-0.139,0.127c-0.043,0.055-0.07,0.124-0.079,0.215c-0.013,0.091-0.019,0.196-0.019,0.312l0.048,1.947
				h3.853c0,0.481-0.134,0.859-0.392,1.149c-0.263,0.288-0.634,0.43-1.11,0.43h-2.365c-0.021,0.713,0.023,1.306,0.139,1.778
				c0.116,0.475,0.303,0.85,0.556,1.127c0.255,0.275,0.592,0.472,1.006,0.589c0.41,0.118,0.903,0.176,1.475,0.176
				c0.682,0,1.205-0.009,1.575-0.033c0.368-0.022,0.6-0.037,0.68-0.048h0.031L123.189,66.171z"/>
			<path fill="#069599" d="M132.877,67.72c-0.073,0.024-0.157,0.042-0.251,0.066c-0.082,0.019-0.172,0.036-0.273,0.046
				c-0.099,0.012-0.205,0.015-0.32,0.015c-0.74,0-1.343-0.168-1.81-0.507c-0.464-0.342-0.865-0.871-1.213-1.582
				c-0.083-0.161-0.194-0.384-0.326-0.678c-0.136-0.294-0.284-0.623-0.449-0.989c-0.159-0.369-0.331-0.759-0.517-1.173
				c-0.182-0.414-0.359-0.826-0.538-1.23c-0.416-0.944-0.869-1.97-1.349-3.064l0.064,7.675c0.013,0.32,0.018,0.581,0.023,0.783
				c0.004,0.202,0.011,0.362,0.021,0.48c0.012,0.128,0.024,0.224,0.033,0.285c-0.646,0-1.143-0.137-1.487-0.406
				c-0.343-0.272-0.519-0.728-0.519-1.363v-9.192c0.073-0.021,0.157-0.042,0.253-0.064c0.084-0.021,0.174-0.039,0.274-0.048
				c0.1-0.009,0.205-0.015,0.319-0.015c0.824,0,1.485,0.185,1.987,0.55c0.502,0.369,0.947,0.935,1.334,1.7
				c0.051,0.105,0.13,0.278,0.241,0.52c0.108,0.239,0.236,0.521,0.376,0.843c0.141,0.324,0.295,0.675,0.462,1.046
				c0.167,0.373,0.333,0.75,0.498,1.131c0.389,0.898,0.808,1.869,1.257,2.921l-0.048-6.939c0-0.629,0.171-1.083,0.515-1.358
				c0.349-0.275,0.842-0.415,1.491-0.415c-0.015,0.073-0.023,0.176-0.032,0.303c-0.013,0.118-0.022,0.275-0.027,0.472
				c-0.004,0.193-0.004,0.454-0.004,0.774L132.877,67.72z"/>
		</g>
	</g>
	<path fill="#FEBC11" d="M39.269,30.587c-6.72,2.531-12.896,5.025-16.466,6.491c0.652,3.158,1.054,6.155,1.253,8.979
		c3.676-1.763,9.939-4.518,16.686-7.572c0.117-3.596-0.2-6.486-0.483-8.267C39.929,30.343,39.597,30.465,39.269,30.587z"/>
	<g>
		<polygon fill="#FEBC11" points="39.906,45.894 39.907,45.891 39.894,45.891 		"/>
		<path fill="#FEBC11" d="M38.698,47.373c-5.329,1.382-11.008,3.227-14.501,4.409c-0.128,5.806-1.08,10.723-2.262,14.657
			c1.004-0.447,2.167-0.986,3.364-1.573c1.169-0.568,5.006-2.613,9.477-5.216c2.479-4.294,3.985-8.566,4.869-12.513
			C39.33,47.212,39.017,47.291,38.698,47.373z"/>
	</g>
	<g>
		<path fill="#FFFFFF" d="M20.29,71.061c-1.771,4.261-3.473,6.522-3.473,6.522c3.8-2.353,7.01-4.874,9.726-7.483
			C24.428,70.45,22.262,70.78,20.29,71.061z"/>
		<path fill="#FFFFFF" d="M34.776,59.649c8.659-5.153,19.831-12.244,18.349-14.759c-0.964-1.638-6.832-0.653-13.218,1
			c-5.986,1.551-12.423,3.689-15.695,4.814c0.006-1.494-0.043-3.042-0.157-4.647c3.676-1.763,9.939-4.518,16.686-7.572
			c14.111-6.396,30.319-14.122,29.288-16.921c-1.01-2.743-16.553,2.424-29.979,7.478c-7.409,2.788-14.167,5.54-17.489,6.912
			c-0.591-2.612-1.387-5.656-1.387-5.656S68.382,10.739,73.62,20.8c5.233,10.063-22.888,19.515-22.888,19.515
			s15.14,5.984,3.589,16.314c0,0-11.798,10.676-33.63,13.432c0,0,0.601-1.563,1.245-3.623
			C21.936,66.438,27.816,63.797,34.776,59.649z"/>
	</g>
</g>
</svg>
